<svg width="59" height="37" fill="none" xmlns="http://www.w3.org/2000/svg"><path fill-rule="evenodd" clip-rule="evenodd" d="M0 34a3 3 0 003 3h53a3 3 0 003-3V3a3 3 0 00-3-3H3a3 3 0 00-3 3v31z" fill="#fff"/><path fill-rule="evenodd" clip-rule="evenodd" d="M29.607 28.08c2.365 2.079 5.546 3.346 8.989 3.346C46.008 31.425 52 25.646 52 18.5c0-7.122-5.992-12.926-13.404-12.926-3.443 0-6.623 1.268-8.989 3.346-2.707 2.382-4.416 5.778-4.416 9.58 0 3.802 1.709 7.223 4.416 9.58z" fill="#E9B040"/><path fill-rule="evenodd" clip-rule="evenodd" d="M33.73 17.131c-.054-.46-.133-.917-.237-1.368h-8.2c.107-.463.239-.92.394-1.369H33.1a14.96 14.96 0 00-.552-1.369H26.24c.243-.466.506-.923.789-1.368h4.73a8.523 8.523 0 00-1.024-1.369h-2.682c.395-.481.868-.938 1.34-1.368-2.364-2.079-5.519-3.346-8.988-3.346C12.992 5.574 7 11.378 7 18.5c0 7.147 5.992 12.925 13.404 12.925 3.47 0 6.623-1.267 8.989-3.345.473-.43.946-.887 1.367-1.368h-2.708a13.505 13.505 0 01-1.025-1.369h4.731c.294-.439.558-.896.79-1.369h-6.309c-.215-.443-.4-.9-.552-1.368H33.1c.155-.45.287-.906.394-1.369a11.939 11.939 0 00.237-4.106z" fill="#CC2131"/><path fill-rule="evenodd" clip-rule="evenodd" d="M38.56 15.474l-.242 1.4c-.537-.25-.912-.35-1.315-.35-1.127 0-1.906 1-1.906 2.426 0 .976.537 1.575 1.395 1.575.377 0 .78-.1 1.263-.325l-.269 1.476c-.536.125-.885.175-1.315.175-1.584 0-2.577-1.05-2.577-2.776 0-2.326 1.369-3.926 3.328-3.926.269 0 .484.025.672.05l.617.15c.188.075.215.075.35.125zm-4.751.975c-.054-.025-.108-.025-.161-.025-.483 0-.752.225-1.208.85l.134-.8h-1.369l-.886 5.277h1.477c.537-3.226.67-3.777 1.395-3.777h.108c.134-.625.295-1.1.564-1.525h-.054zm-8.564 5.227a3.453 3.453 0 01-1.074.175c-.752 0-1.18-.4-1.18-1.15 0-.15.026-.301.053-.476l.08-.525.08-.4.645-3.601h1.477l-.161.775h.751l-.215 1.3h-.75l-.404 2.176c0 .1-.027.175-.027.225 0 .275.161.4.51.4.189 0 .296-.025.403-.05l-.188 1.15zm-5.718-3.526c0 .65.35 1.125 1.128 1.45.617.275.698.35.698.6 0 .325-.269.475-.86.475-.429 0-.831-.075-1.315-.225l-.215 1.226h.08l.27.05c.121.034.248.051.375.05.35.025.645.05.832.05 1.558 0 2.282-.55 2.282-1.75 0-.726-.295-1.151-1.047-1.477-.617-.25-.698-.325-.698-.55 0-.3.242-.45.725-.45.296 0 .698.05 1.074.1l.214-1.225c-.375-.05-.966-.1-1.315-.1-1.664 0-2.228.8-2.228 1.776zm30.388 3.6h-1.422l.08-.524c-.403.4-.833.574-1.37.574-1.073 0-1.798-.85-1.798-2.175 0-1.75 1.1-3.226 2.416-3.226.59 0 1.02.225 1.423.725l.322-1.85h1.477l-1.128 6.477zm-2.201-1.25c.698 0 1.18-.725 1.18-1.775 0-.65-.267-1.026-.777-1.026-.671 0-1.155.725-1.155 1.776 0 .675.241 1.025.752 1.025zm-17.932 1.126c-.51.15-.993.225-1.53.225-1.665 0-2.524-.826-2.524-2.351 0-1.826 1.101-3.151 2.604-3.151 1.208 0 1.987.75 1.987 1.926 0 .375-.054.75-.161 1.3h-2.953c-.027.075-.027.1-.027.15 0 .6.43.925 1.316.925.51 0 .993-.1 1.53-.325l-.242 1.3zm-.832-3.127v-.275c0-.425-.242-.675-.698-.675-.456 0-.805.35-.94.95h1.638zm-15.06 3.252h-1.476l.859-4.977-1.906 4.977h-1.02l-.108-4.952-.912 4.952h-1.37l1.155-6.478h2.12l.081 4.002 1.423-4.002h2.308l-1.154 6.478zm3.678-2.351c-.162-.025-.242-.025-.35-.025-.831 0-1.26.275-1.26.8 0 .325.214.55.536.55.617 0 1.047-.55 1.074-1.325zm1.073 2.35h-1.234l.027-.55c-.376.426-.86.625-1.558.625-.805 0-1.342-.575-1.342-1.425 0-1.275.94-2.026 2.604-2.026.161 0 .376 0 .59.025.054-.15.054-.225.054-.325 0-.35-.241-.475-.94-.475-.429 0-.912.05-1.234.15l-.215.05-.134.025.215-1.175c.751-.2 1.234-.276 1.771-.276 1.289 0 1.96.526 1.96 1.526 0 .275-.027.475-.135 1.05l-.295 1.876-.053.325-.027.275-.027.175-.027.15zm22.335-2.35c-.16-.025-.242-.025-.349-.025-.832 0-1.262.275-1.262.8 0 .325.215.55.537.55.59 0 1.047-.55 1.074-1.325zm1.074 2.35h-1.235l.027-.55c-.376.426-.886.625-1.557.625-.805 0-1.37-.575-1.37-1.425 0-1.275.967-2.026 2.631-2.026.16 0 .376 0 .59.025a.798.798 0 00.054-.325c0-.35-.241-.475-.94-.475-.43 0-.912.05-1.234.15l-.215.05-.134.025.215-1.175c.75-.2 1.234-.276 1.771-.276 1.289 0 1.96.526 1.96 1.526 0 .275-.027.475-.134 1.05l-.296 1.876-.053.325-.054.275-.027.175v.15zm3.973-5.301c-.027-.025-.08-.025-.135-.025-.483 0-.778.225-1.234.85l.134-.8h-1.342l-.913 5.277h1.503c.51-3.226.672-3.777 1.37-3.777h.107c.134-.625.322-1.1.564-1.525h-.054z" fill="#fff"/></svg>