<svg width="30" height="30" fill="none" xmlns="http://www.w3.org/2000/svg"><rect width="30" height="30" rx="3" fill="#1074EB"/><g clip-path="url(#clip0_38_638)"><path d="M9.17 21a3 3 0 015.66 0H25v2H14.83a3 3 0 01-5.66 0H5v-2h4.17zm6-7a3 3 0 015.66 0H25v2h-4.17a3 3 0 01-5.66 0H5v-2h10.17zm-6-7a3.001 3.001 0 015.66 0H25v2H14.83a3 3 0 01-5.66 0H5V7h4.17zM12 9a1 1 0 100-2 1 1 0 000 2zm6 7a1 1 0 100-2 1 1 0 000 2zm-6 7a1 1 0 100-2 1 1 0 000 2z" fill="#fff"/></g><defs><clipPath id="clip0_38_638"><path fill="#fff" transform="translate(3 3)" d="M0 0h24v24H0z"/></clipPath></defs></svg>