<svg width="80" height="80" fill="none" xmlns="http://www.w3.org/2000/svg"><circle opacity=".15" cx="40" cy="40" r="40" fill="#F90"/><g clip-path="url(#clip0_94_1019)"><path d="M31.333 50.667a2 2 0 11-.001 4.001 2 2 0 01.001-4.001zm17.334 0a2 2 0 11-.002 4.001 2 2 0 01.002-4.001zm-21.77-24.324l5.102 5.104v15.22h18.668v2.666h-20A1.334 1.334 0 0129.333 48V32.55l-4.325-4.32 1.887-1.887h.001zM45.332 28c.736 0 1.334.597 1.334 1.333V32h3.99C51.4 32 52 32.608 52 33.327v10.68c0 .733-.6 1.326-1.343 1.326h-15.98a1.343 1.343 0 01-1.344-1.326v-10.68c0-.734.6-1.327 1.343-1.327h3.99v-2.667c0-.736.598-1.333 1.334-1.333h5.333zm-8 6.667H36v8h1.333v-8zm8 0H40v8h5.333v-8zm4 0H48v8h1.333v-8zm-5.333-4h-2.667V32H44v-1.333z" fill="#F90"/></g><defs><clipPath id="clip0_94_1019"><path fill="#fff" transform="translate(24 24)" d="M0 0h32v32H0z"/></clipPath></defs></svg>