<svg width="19" height="19" fill="none" xmlns="http://www.w3.org/2000/svg"><g clip-path="url(#clip0_82_268)"><path d="M3.167 17.417a6.333 6.333 0 1112.666 0H3.167zm7.125-4.685v3.101h3.688a4.757 4.757 0 00-3.688-3.1zm-1.584 3.101v-3.1a4.756 4.756 0 00-3.688 3.1h3.688zm.792-5.541a4.749 4.749 0 01-4.75-4.75A4.749 4.749 0 019.5.792a4.749 4.749 0 014.75 4.75 4.749 4.749 0 01-4.75 4.75zm0-1.584a3.166 3.166 0 100-6.333 3.166 3.166 0 100 6.333z" fill="#fff"/></g><defs><clipPath id="clip0_82_268"><path fill="#fff" d="M0 0h19v19H0z"/></clipPath></defs></svg>