<svg width="144" height="38" fill="none" xmlns="http://www.w3.org/2000/svg"><path fill-rule="evenodd" clip-rule="evenodd" d="M23.943 37.474c8.017-2.413 13.85-9.775 13.85-18.482 0-8.75-5.89-16.142-13.967-18.518H125.5c10.217 0 18.5 8.283 18.5 18.5s-8.283 18.5-18.5 18.5H23.943z" fill="#1074EB"/><ellipse cx="17.902" cy="18.992" rx="17.902" ry="17.681" fill="#F90"/><path d="M19.044 14.742a1 1 0 001 1h4.931a1 1 0 01.912 1.411L18.825 32.81c-.442.982-1.91.666-1.911-.411l-.004-9.102a1 1 0 00-1-1h-4.93a1 1 0 01-.912-1.412l7.061-15.657c.443-.981 1.912-.665 1.912.412l.003 9.102zm34.22 14.601c-1.798 0-3.307-.287-4.526-.859-1.218-.572-2.147-1.322-2.787-2.25-.619-.927-.949-1.914-.989-2.96a.614.614 0 01.63-.622h3.386c.24.001.43.06.57.179a.91.91 0 01.36.414c.2.533.459.967.779 1.302.34.336.729.582 1.168.74.44.158.91.237 1.409.237.64 0 1.229-.128 1.768-.385.54-.276.97-.67 1.289-1.184.32-.513.48-1.144.48-1.894 0-.651-.15-1.224-.45-1.717a3.08 3.08 0 00-1.259-1.154c-.54-.277-1.149-.415-1.828-.415-.52 0-.95.06-1.289.178-.32.118-.59.266-.809.444a23.6 23.6 0 00-.6.444c-.18.118-.379.178-.599.178h-3.326c-.18 0-.34-.06-.48-.178a.702.702 0 01-.18-.474l1.05-10.212c.04-.276.14-.483.299-.621a.924.924 0 01.63-.237h11.627c.22 0 .4.07.54.207.14.138.21.316.21.533v2.368a.68.68 0 01-.21.503.735.735 0 01-.54.207h-8.66l-.45 4.352c.4-.257.889-.484 1.468-.681.6-.217 1.429-.326 2.488-.326.959 0 1.868.158 2.727.474.879.296 1.658.74 2.338 1.332a6.24 6.24 0 011.588 2.131c.4.81.6 1.737.6 2.782 0 1.421-.34 2.674-1.02 3.76-.679 1.065-1.648 1.904-2.907 2.516-1.258.592-2.757.888-4.495.888zm19.136-.326c-.22 0-.4-.07-.539-.207a.716.716 0 01-.21-.533V9.037c0-.217.07-.395.21-.533a.735.735 0 01.54-.207h3.176c.22 0 .4.07.54.207.14.138.21.316.21.533v6.749L82.5 8.859c.08-.118.21-.236.39-.355.2-.138.46-.207.779-.207h3.626c.18 0 .33.07.45.207.12.119.18.257.18.415 0 .138-.04.256-.12.355l-7.703 8.939 8.272 9.827c.08.08.12.198.12.355 0 .158-.06.306-.18.444a.614.614 0 01-.45.178h-3.746c-.36 0-.629-.079-.809-.237-.18-.158-.3-.266-.36-.325l-6.623-7.578v7.4c0 .217-.07.395-.21.533a.735.735 0 01-.539.207H72.4zm24.709 0c-.32 0-.58-.079-.78-.237a1.567 1.567 0 01-.389-.621L89.647 9.185a1.354 1.354 0 01-.03-.266c0-.158.06-.296.18-.415a.57.57 0 01.449-.207h3.147c.3 0 .53.089.689.266.18.158.29.306.33.444l4.675 14.475 4.645-14.475c.06-.138.17-.286.33-.444.16-.177.389-.266.689-.266h3.147c.18 0 .33.07.449.207.12.119.18.257.18.415 0 .079-.01.167-.03.266l-6.293 18.974c-.06.236-.19.444-.39.621-.18.158-.439.237-.779.237h-3.926zm19.768 0a.734.734 0 01-.539-.207.716.716 0 01-.21-.533V12.411h-5.454a.7.7 0 01-.51-.207.68.68 0 01-.21-.503V9.037a.716.716 0 01.72-.74h15.703c.22 0 .4.07.54.207.14.138.21.316.21.533v2.664a.68.68 0 01-.21.503.736.736 0 01-.54.207h-5.424v15.866c0 .217-.07.395-.21.533a.734.734 0 01-.539.207h-3.327z" fill="#fff"/></svg>