<svg width="22" height="22" fill="none" xmlns="http://www.w3.org/2000/svg"><g clip-path="url(#clip0_1_495)"><path d="M18.266 21.803H3.858c-1.902 0-3.45-1.584-3.45-3.531V3.532C.408 1.583 1.956 0 3.858 0h14.408c1.902 0 3.45 1.584 3.45 3.531v14.741c0 1.948-1.548 3.531-3.45 3.531zM7.558 4.513h7.15c1.519 0 2.75 1.263 2.75 2.82v7.334c0 1.557-1.231 2.82-2.75 2.82h-7.15c-1.519 0-2.75-1.263-2.75-2.82V7.333c0-1.557 1.231-2.82 2.75-2.82zm0-1.692c-2.43 0-4.4 2.02-4.4 4.512v7.334c0 2.492 1.97 4.513 4.4 4.513h7.15c2.43 0 4.4-2.021 4.4-4.513V7.333c0-2.492-1.97-4.512-4.4-4.512h-7.15zm3.575 12.128c2.126 0 3.85-1.768 3.85-3.949 0-2.18-1.724-3.949-3.85-3.949-2.126 0-3.85 1.768-3.85 3.949 0 2.18 1.724 3.949 3.85 3.949zm0-1.693c-1.215 0-2.2-1.01-2.2-2.256 0-1.246.985-2.256 2.2-2.256 1.215 0 2.2 1.01 2.2 2.256 0 1.246-.985 2.256-2.2 2.256zm4.125-5.359c.608 0 1.1-.505 1.1-1.128 0-.623-.492-1.128-1.1-1.128-.608 0-1.1.505-1.1 1.128 0 .623.492 1.128 1.1 1.128z" fill="#1074EB"/></g><defs><clipPath id="clip0_1_495"><path fill="#fff" d="M0 0h22v22H0z"/></clipPath></defs></svg>