<svg width="16" height="16" fill="none" xmlns="http://www.w3.org/2000/svg"><g clip-path="url(#clip0_398_1180)"><path d="M11.6 14.667A10.28 10.28 0 011.333 4.4 3.067 3.067 0 014.4 1.333c.172-.001.344.015.513.047.164.024.325.064.48.12a.667.667 0 01.434.5l.913 4a.667.667 0 01-.173.613c-.087.094-.094.1-.913.527A6.607 6.607 0 008.9 10.4c.434-.827.44-.833.534-.92a.667.667 0 01.613-.173l4 .913a.667.667 0 01.48.433 2.89 2.89 0 01.167.994 3.067 3.067 0 01-3.094 3.02zm-7.2-12A1.74 1.74 0 002.667 4.4a8.94 8.94 0 008.933 8.933 1.74 1.74 0 001.734-1.733v-.22l-3.094-.713-.193.366c-.3.58-.52 1-1.08.774A7.9 7.9 0 014.18 7c-.24-.52.214-.76.787-1.06l.367-.18-.714-3.093H4.4z" fill="#F90"/></g><defs><clipPath id="clip0_398_1180"><path fill="#fff" d="M0 0h16v16H0z"/></clipPath></defs></svg>