<svg width="23" height="23" fill="none" xmlns="http://www.w3.org/2000/svg"><g clip-path="url(#clip0_1_483)"><path d="M3.833 21.083a7.667 7.667 0 0115.334 0H17.25a5.75 5.75 0 10-11.5 0H3.833zm7.667-8.625a5.748 5.748 0 01-5.75-5.75A5.748 5.748 0 0111.5.958a5.748 5.748 0 015.75 5.75 5.748 5.748 0 01-5.75 5.75zm0-1.916a3.832 3.832 0 003.833-3.834A3.832 3.832 0 0011.5 2.875a3.832 3.832 0 00-3.833 3.833 3.832 3.832 0 003.833 3.834z" fill="#fff"/></g><defs><clipPath id="clip0_1_483"><path fill="#fff" d="M0 0h23v23H0z"/></clipPath></defs></svg>